<svg viewBox="0 0 465 261" xmlns="http://www.w3.org/2000/svg"><defs><linearGradient id="a" x1=".8" x2="79" y1="2.9" y2="81.2" gradientUnits="userSpaceOnUse"><stop stop-color="#00afde" offset="0"/><stop stop-color="#c7e758" offset="1"/></linearGradient></defs><path d="M36.5 259.6v-186h-35v-70h71.7v41.8H92q13.6-22.2 35.4-34.3T181-1.1q30.8 0 52.7 10.9T269 42h1.7q29.5-43.1 87.5-43.1 49.5 0 78.5 28.8t29 77.9v154H395V119.2q0-57.1-54.2-57.1t-54.2 57.1v140.4h-70.8V119.2q0-57.1-55-57.1-26.5 0-40 14t-13.4 43.1v140.4z"/><path fill="url(#a)" d="M0 0h78v78H0z"/></svg>